<svg width="24" height="30" viewBox="0 0 24 30" fill="none" xmlns="http://www.w3.org/2000/svg">
<g clip-path="url(#clip0_65_4428)">
<path d="M12 27C18.6272 27 24 21.6272 24 15C24 8.3728 18.6272 3 12 3C5.3728 3 0 8.3728 0 15C0 21.6272 5.3728 27 12 27Z" fill="#046B5E"/>
<path d="M14.25 19.5H13.5C13.1022 19.5 12.7206 19.342 12.4393 19.0607C12.158 18.7794 12 18.3978 12 18V14.25C12 14.0511 11.921 13.8603 11.7803 13.7197C11.6397 13.579 11.4489 13.5 11.25 13.5H10.5" stroke="white" stroke-width="1.8" stroke-linecap="round" stroke-linejoin="round"/>
<path d="M11.625 10.5C11.5255 10.5 11.4302 10.4605 11.3598 10.3902C11.2895 10.3198 11.25 10.2245 11.25 10.125C11.25 10.0255 11.2895 9.93016 11.3598 9.85984C11.4302 9.78951 11.5255 9.75 11.625 9.75" stroke="white" stroke-width="1.8"/>
<path d="M11.625 10.5C11.7245 10.5 11.8198 10.4605 11.8902 10.3902C11.9605 10.3198 12 10.2245 12 10.125C12 10.0255 11.9605 9.93016 11.8902 9.85984C11.8198 9.78951 11.7245 9.75 11.625 9.75" stroke="white" stroke-width="1.8"/>
</g>
<defs>
<clipPath id="clip0_65_4428">
<rect width="24" height="24" fill="white" transform="translate(0 3)"/>
</clipPath>
</defs>
</svg>
