<svg width="16" height="16" viewBox="0 0 16 16" fill="none" xmlns="http://www.w3.org/2000/svg">
<g clip-path="url(#clip0_2_7291)">
<path d="M14.6666 2.66665H11.2199L9.99992 1.33331H5.99992L4.77992 2.66665H1.33325V13.3333H14.6666V2.66665ZM7.99992 4.66665C9.08659 4.66665 10.0399 5.19331 10.6533 5.99998H7.99992C6.89325 5.99998 5.99992 6.89331 5.99992 7.99998C5.99992 8.23331 6.04659 8.45998 6.11992 8.66665H4.73325C4.69325 8.45331 4.66659 8.22665 4.66659 7.99998C4.66659 6.15998 6.15992 4.66665 7.99992 4.66665ZM7.99992 11.3333C6.91325 11.3333 5.95992 10.8066 5.34659 9.99998H7.99992C9.10659 9.99998 9.99992 9.10665 9.99992 7.99998C9.99992 7.76665 9.95325 7.53998 9.87992 7.33331H11.2666C11.3133 7.54665 11.3333 7.77331 11.3333 7.99998C11.3333 9.83998 9.83992 11.3333 7.99992 11.3333Z" fill="#323232"/>
</g>
<defs>
<clipPath id="clip0_2_7291">
<rect width="16" height="16" fill="white"/>
</clipPath>
</defs>
</svg>
