<svg width="16" height="16" viewBox="0 0 16 16" fill="none" xmlns="http://www.w3.org/2000/svg">
<g clip-path="url(#clip0_185_4796)">
<path d="M8 1.3335C4.32 1.3335 1.33333 4.32016 1.33333 8.00016C1.33333 11.6802 4.32 14.6668 8 14.6668C11.68 14.6668 14.6667 11.6802 14.6667 8.00016C14.6667 4.32016 11.68 1.3335 8 1.3335ZM8 13.3335C5.05333 13.3335 2.66667 10.9468 2.66667 8.00016C2.66667 5.0535 5.05333 2.66683 8 2.66683C10.9467 2.66683 13.3333 5.0535 13.3333 8.00016C13.3333 10.9468 10.9467 13.3335 8 13.3335Z" fill="#23201E"/>
<path d="M8 11.3332C9.84095 11.3332 11.3333 9.84079 11.3333 7.99984C11.3333 6.15889 9.84095 4.6665 8 4.6665C6.15905 4.6665 4.66667 6.15889 4.66667 7.99984C4.66667 9.84079 6.15905 11.3332 8 11.3332Z" fill="#23201E"/>
</g>
<defs>
<clipPath id="clip0_185_4796">
<rect width="16" height="16" fill="white"/>
</clipPath>
</defs>
</svg>
