<svg width="16" height="16" viewBox="0 0 16 16" fill="none" xmlns="http://www.w3.org/2000/svg">
<g clip-path="url(#clip0_2_6315)">
<path d="M13.3334 5.79335V2.66669H10.2067L8.00002 0.460022L5.79335 2.66669H2.66669V5.79335L0.460022 8.00002L2.66669 10.2067V13.3334H5.79335L8.00002 15.54L10.2067 13.3334H13.3334V10.2067L15.54 8.00002L13.3334 5.79335ZM8.00002 12C5.79336 12 4.00002 10.2067 4.00002 8.00002C4.00002 5.79336 5.79336 4.00002 8.00002 4.00002C10.2067 4.00002 12 5.79336 12 8.00002C12 10.2067 10.2067 12 8.00002 12ZM8.00002 5.33336C6.52669 5.33336 5.33336 6.52669 5.33336 8.00002C5.33336 9.47336 6.52669 10.6667 8.00002 10.6667C9.47336 10.6667 10.6667 9.47336 10.6667 8.00002C10.6667 6.52669 9.47336 5.33336 8.00002 5.33336Z" fill="#323232"/>
</g>
<defs>
<clipPath id="clip0_2_6315">
<rect width="16" height="16" fill="white"/>
</clipPath>
</defs>
</svg>
