<svg width="16" height="16" viewBox="0 0 16 16" fill="none" xmlns="http://www.w3.org/2000/svg">
<g clip-path="url(#clip0_2_5357)">
<path d="M7.99999 2.66663C4.66666 2.66663 1.81999 4.73996 0.666656 7.66663C1.81999 10.5933 4.66666 12.6666 7.99999 12.6666C11.3333 12.6666 14.18 10.5933 15.3333 7.66663C14.18 4.73996 11.3333 2.66663 7.99999 2.66663ZM7.99999 11C6.15999 11 4.66666 9.50663 4.66666 7.66663C4.66666 5.82663 6.15999 4.33329 7.99999 4.33329C9.83999 4.33329 11.3333 5.82663 11.3333 7.66663C11.3333 9.50663 9.83999 11 7.99999 11ZM7.99999 5.66663C6.89332 5.66663 5.99999 6.55996 5.99999 7.66663C5.99999 8.77329 6.89332 9.66663 7.99999 9.66663C9.10666 9.66663 9.99999 8.77329 9.99999 7.66663C9.99999 6.55996 9.10666 5.66663 7.99999 5.66663Z" fill="#323232"/>
</g>
<defs>
<clipPath id="clip0_2_5357">
<rect width="16" height="16" fill="white"/>
</clipPath>
</defs>
</svg>
