<svg width="20" height="20" viewBox="0 0 20 20" fill="none" xmlns="http://www.w3.org/2000/svg">
<g clip-path="url(#clip0_202_8680)">
<path d="M17.5 2.50016H12.35C12 1.5335 11.0833 0.833496 10 0.833496C8.91667 0.833496 8 1.5335 7.65 2.50016H2.5V17.5002H17.5V2.50016ZM10 2.50016C10.4583 2.50016 10.8333 2.87516 10.8333 3.3335C10.8333 3.79183 10.4583 4.16683 10 4.16683C9.54167 4.16683 9.16667 3.79183 9.16667 3.3335C9.16667 2.87516 9.54167 2.50016 10 2.50016ZM10 5.8335C11.3833 5.8335 12.5 6.95016 12.5 8.3335C12.5 9.71683 11.3833 10.8335 10 10.8335C8.61667 10.8335 7.5 9.71683 7.5 8.3335C7.5 6.95016 8.61667 5.8335 10 5.8335ZM15 15.8335H5V14.6668C5 13.0002 8.33333 12.0835 10 12.0835C11.6667 12.0835 15 13.0002 15 14.6668V15.8335Z" fill="#23201E"/>
</g>
<defs>
<clipPath id="clip0_202_8680">
<rect width="20" height="20" fill="white"/>
</clipPath>
</defs>
</svg>
