<svg width="16" height="16" viewBox="0 0 16 16" fill="none" xmlns="http://www.w3.org/2000/svg">
<g clip-path="url(#clip0_2_4853)">
<path d="M14.6668 3.99998H11.8801C11.9534 3.79331 12.0001 3.56665 12.0001 3.33331C12.0001 2.22665 11.1068 1.33331 10.0001 1.33331C9.30009 1.33331 8.69342 1.69331 8.33342 2.23331L8.00009 2.67998L7.66675 2.22665C7.30675 1.69331 6.70009 1.33331 6.00009 1.33331C4.89342 1.33331 4.00009 2.22665 4.00009 3.33331C4.00009 3.56665 4.04675 3.79331 4.12009 3.99998H1.34009V14H14.6668V3.99998ZM10.0001 2.66665C10.3668 2.66665 10.6668 2.96665 10.6668 3.33331C10.6668 3.69998 10.3668 3.99998 10.0001 3.99998C9.63342 3.99998 9.33342 3.69998 9.33342 3.33331C9.33342 2.96665 9.63342 2.66665 10.0001 2.66665ZM6.00009 2.66665C6.36675 2.66665 6.66675 2.96665 6.66675 3.33331C6.66675 3.69998 6.36675 3.99998 6.00009 3.99998C5.63342 3.99998 5.33342 3.69998 5.33342 3.33331C5.33342 2.96665 5.63342 2.66665 6.00009 2.66665ZM13.3334 12.6666H2.66675V11.3333H13.3334V12.6666ZM13.3334 9.33331H2.66675V5.33331H6.05342L4.66675 7.21998L5.74675 7.99998L8.00009 4.93331L10.2534 7.99998L11.3334 7.21998L9.94675 5.33331H13.3334V9.33331Z" fill="#323232"/>
</g>
<defs>
<clipPath id="clip0_2_4853">
<rect width="16" height="16" fill="white"/>
</clipPath>
</defs>
</svg>
