<svg width="20" height="20" viewBox="0 0 20 20" fill="none" xmlns="http://www.w3.org/2000/svg">
<g clip-path="url(#clip0_77_4726)">
<path d="M18.3333 5.00008H14.85C14.9417 4.74175 15 4.45841 15 4.16675C15 2.78341 13.8833 1.66675 12.5 1.66675C11.625 1.66675 10.8667 2.11675 10.4167 2.79175L10 3.35008L9.58333 2.78341C9.13333 2.11675 8.375 1.66675 7.5 1.66675C6.11667 1.66675 5 2.78341 5 4.16675C5 4.45841 5.05833 4.74175 5.15 5.00008H1.675V17.5001H18.3333V5.00008ZM12.5 3.33341C12.9583 3.33341 13.3333 3.70841 13.3333 4.16675C13.3333 4.62508 12.9583 5.00008 12.5 5.00008C12.0417 5.00008 11.6667 4.62508 11.6667 4.16675C11.6667 3.70841 12.0417 3.33341 12.5 3.33341ZM7.5 3.33341C7.95833 3.33341 8.33333 3.70841 8.33333 4.16675C8.33333 4.62508 7.95833 5.00008 7.5 5.00008C7.04167 5.00008 6.66667 4.62508 6.66667 4.16675C6.66667 3.70841 7.04167 3.33341 7.5 3.33341ZM16.6667 15.8334H3.33333V14.1667H16.6667V15.8334ZM16.6667 11.6667H3.33333V6.66675H7.56667L5.83333 9.02508L7.18333 10.0001L10 6.16675L12.8167 10.0001L14.1667 9.02508L12.4333 6.66675H16.6667V11.6667Z" fill="#23201E"/>
</g>
<defs>
<clipPath id="clip0_77_4726">
<rect width="20" height="20" fill="white"/>
</clipPath>
</defs>
</svg>
