<svg width="16" height="16" viewBox="0 0 16 16" fill="none" xmlns="http://www.w3.org/2000/svg">
<g clip-path="url(#clip0_2_6279)">
<path d="M2 2.66669V0.666687H3.33333V2.66669H5.33333V4.00002H3.33333V6.00002H2V4.00002H0V2.66669H2ZM4 6.66669V4.66669H6V2.66669H10.6667L11.8867 4.00002H15.3333V14.6667H2V6.66669H4ZM8.66667 12.6667C10.5067 12.6667 12 11.1734 12 9.33335C12 7.49335 10.5067 6.00002 8.66667 6.00002C6.82667 6.00002 5.33333 7.49335 5.33333 9.33335C5.33333 11.1734 6.82667 12.6667 8.66667 12.6667ZM6.66667 9.33335C6.66667 10.44 7.56 11.3334 8.66667 11.3334C9.77333 11.3334 10.6667 10.44 10.6667 9.33335C10.6667 8.22669 9.77333 7.33335 8.66667 7.33335C7.56 7.33335 6.66667 8.22669 6.66667 9.33335Z" fill="#323232"/>
</g>
<defs>
<clipPath id="clip0_2_6279">
<rect width="16" height="16" fill="white"/>
</clipPath>
</defs>
</svg>
