<svg width="16" height="16" viewBox="0 0 16 16" fill="none" xmlns="http://www.w3.org/2000/svg">
<g clip-path="url(#clip0_185_4817)">
<path d="M13.3333 5.33355H11.3333V4.14022C11.3333 2.40022 10.06 0.846882 8.32667 0.680215C6.34 0.493548 4.66667 2.05355 4.66667 4.00022V5.33355H2.66667V14.6669H13.3333V5.33355ZM8 11.3335C7.26667 11.3335 6.66667 10.7335 6.66667 10.0002C6.66667 9.26688 7.26667 8.66688 8 8.66688C8.73333 8.66688 9.33333 9.26688 9.33333 10.0002C9.33333 10.7335 8.73333 11.3335 8 11.3335ZM6 5.33355V4.00022C6 2.89355 6.89333 2.00022 8 2.00022C9.10667 2.00022 10 2.89355 10 4.00022V5.33355H6Z" fill="#23201E"/>
</g>
<defs>
<clipPath id="clip0_185_4817">
<rect width="16" height="16" fill="white"/>
</clipPath>
</defs>
</svg>
