<svg width="16" height="16" viewBox="0 0 16 16" fill="none" xmlns="http://www.w3.org/2000/svg">
<g clip-path="url(#clip0_185_4777)">
<path d="M8 1.3335C4.32 1.3335 1.33333 4.32016 1.33333 8.00016C1.33333 11.6802 4.32 14.6668 8 14.6668C11.68 14.6668 14.6667 11.6802 14.6667 8.00016C14.6667 4.32016 11.68 1.3335 8 1.3335ZM8 3.3335C9.10667 3.3335 10 4.22683 10 5.3335C10 6.44016 9.10667 7.3335 8 7.3335C6.89333 7.3335 6 6.44016 6 5.3335C6 4.22683 6.89333 3.3335 8 3.3335ZM8 12.8002C6.33333 12.8002 4.86 11.9468 4 10.6535C4.02 9.32683 6.66667 8.60016 8 8.60016C9.32667 8.60016 11.98 9.32683 12 10.6535C11.14 11.9468 9.66667 12.8002 8 12.8002Z" fill="#23201E"/>
</g>
<defs>
<clipPath id="clip0_185_4777">
<rect width="16" height="16" fill="white"/>
</clipPath>
</defs>
</svg>
