<svg width="20" height="20" viewBox="0 0 20 20" fill="none" xmlns="http://www.w3.org/2000/svg">
<g clip-path="url(#clip0_77_4791)">
<path d="M16.6667 6.66669H14.1667V5.17502C14.1667 3.00003 12.575 1.05836 10.4083 0.850025C7.925 0.616691 5.83333 2.56669 5.83333 5.00002V6.66669H3.33333V18.3334H16.6667V6.66669ZM10 14.1667C9.08333 14.1667 8.33333 13.4167 8.33333 12.5C8.33333 11.5834 9.08333 10.8334 10 10.8334C10.9167 10.8334 11.6667 11.5834 11.6667 12.5C11.6667 13.4167 10.9167 14.1667 10 14.1667ZM7.5 6.66669V5.00002C7.5 3.61669 8.61667 2.50002 10 2.50002C11.3833 2.50002 12.5 3.61669 12.5 5.00002V6.66669H7.5Z" fill="#23201E"/>
</g>
<defs>
<clipPath id="clip0_77_4791">
<rect width="20" height="20" fill="white"/>
</clipPath>
</defs>
</svg>
