<svg width="16" height="16" viewBox="0 0 16 16" fill="none" xmlns="http://www.w3.org/2000/svg">
<g clip-path="url(#clip0_2_5359)">
<path d="M7.99999 4.3333C9.83999 4.3333 11.3333 5.82663 11.3333 7.66663C11.3333 8.00663 11.2667 8.3333 11.1733 8.63997L13.2133 10.68C14.14 9.85997 14.8733 8.8333 15.3333 7.65997C14.18 4.73997 11.3333 2.66663 7.99999 2.66663C7.15332 2.66663 6.33999 2.79997 5.57332 3.04663L7.01999 4.4933C7.33332 4.39997 7.65999 4.3333 7.99999 4.3333ZM2.27999 1.6333L1.33999 2.57997L3.12666 4.36663C2.03999 5.21997 1.17999 6.3533 0.666656 7.66663C1.81999 10.5933 4.66666 12.6666 7.99999 12.6666C9.01332 12.6666 9.97999 12.4666 10.8733 12.12L13.16 14.4066L14.1 13.4666L2.27999 1.6333ZM7.99999 11C6.15999 11 4.66666 9.50663 4.66666 7.66663C4.66666 7.1533 4.78666 6.66663 4.99332 6.23997L6.03999 7.28663C6.01999 7.40663 5.99999 7.5333 5.99999 7.66663C5.99999 8.7733 6.89332 9.66663 7.99999 9.66663C8.13332 9.66663 8.25332 9.64664 8.37999 9.61997L9.42666 10.6666C8.99332 10.88 8.51332 11 7.99999 11ZM9.97999 7.44663C9.87999 6.5133 9.14666 5.78663 8.21999 5.68663L9.97999 7.44663Z" fill="#323232"/>
</g>
<defs>
<clipPath id="clip0_2_5359">
<rect width="16" height="16" fill="white"/>
</clipPath>
</defs>
</svg>
