<svg width="6" height="10" viewBox="0 0 6 10" fill="none" xmlns="http://www.w3.org/2000/svg">
<path d="M2.912 9.312C1.304 9.312 0 7.944 0 6.256C0 4.304 2.616 0.216 2.64 0.176C2.672 0.128 2.752 0 2.896 0H2.928C3.064 0 3.136 0.0720001 3.176 0.136C3.2 0.176 5.816 4.304 5.808 6.264C5.808 7.944 4.504 9.312 2.912 9.312ZM2.92 0.328C2.912 0.336 2.912 0.344 2.904 0.352C2.88 0.392 0.32 4.424 0.32 6.256C0.32 7.768 1.48 8.992 2.904 8.992H2.912C4.336 8.992 5.488 7.768 5.496 6.264C5.496 4.728 3.656 1.48 2.92 0.328Z" fill="#23201E"/>
<path d="M1.54412 7.48003C1.48812 7.48003 1.42412 7.44803 1.40012 7.39203C1.21612 7.00003 1.12012 6.57603 1.12012 6.13603C1.12012 5.07203 1.95212 3.32003 2.65612 2.04003C2.69612 1.96003 2.79212 1.93603 2.87212 1.97603C2.95212 2.01603 2.97612 2.11203 2.93612 2.19203C1.96012 3.97603 1.44012 5.34403 1.44012 6.13603C1.44012 6.53603 1.52812 6.90403 1.68812 7.24803C1.72812 7.32803 1.69612 7.42403 1.61612 7.46403C1.59212 7.47203 1.56812 7.48003 1.54412 7.48003Z" fill="#23201E"/>
</svg>
