<svg width="16" height="16" viewBox="0 0 16 16" fill="none" xmlns="http://www.w3.org/2000/svg">
<g clip-path="url(#clip0_2_4885)">
<path d="M6.71992 7.24001C6.75325 7.02001 6.82659 6.82668 6.91992 6.66001C7.01325 6.49334 7.14659 6.35334 7.31325 6.24668C7.47325 6.14668 7.67325 6.10001 7.91992 6.09334C8.07325 6.10001 8.21325 6.12668 8.33992 6.18001C8.47325 6.24001 8.59325 6.32001 8.68659 6.42001C8.77992 6.52001 8.85325 6.64001 8.91325 6.77334C8.97325 6.90668 8.99992 7.05334 9.00659 7.20001H10.1999C10.1866 6.88668 10.1266 6.60001 10.0133 6.34001C9.89992 6.08001 9.74658 5.85334 9.54659 5.66668C9.34659 5.48001 9.10659 5.33334 8.82659 5.22668C8.54659 5.12001 8.23992 5.07334 7.89992 5.07334C7.46659 5.07334 7.08659 5.14668 6.76659 5.30001C6.44659 5.45334 6.17992 5.65334 5.96659 5.91334C5.75325 6.17334 5.59325 6.47334 5.49325 6.82001C5.39325 7.16668 5.33325 7.52668 5.33325 7.91334V8.09334C5.33325 8.48001 5.38659 8.84001 5.48659 9.18668C5.58659 9.53334 5.74659 9.83334 5.95992 10.0867C6.17325 10.34 6.43992 10.5467 6.75992 10.6933C7.07992 10.84 7.45992 10.92 7.89325 10.92C8.20659 10.92 8.49992 10.8667 8.77325 10.7667C9.04659 10.6667 9.28659 10.5267 9.49325 10.3467C9.69992 10.1667 9.86658 9.96001 9.98659 9.72001C10.1066 9.48001 10.1799 9.22668 10.1866 8.95334H8.99325C8.98659 9.09334 8.95325 9.22001 8.89325 9.34001C8.83325 9.46001 8.75325 9.56001 8.65325 9.64668C8.55325 9.73334 8.43992 9.80001 8.30659 9.84668C8.17992 9.89334 8.04659 9.90668 7.90659 9.91334C7.66659 9.90668 7.46659 9.86001 7.31325 9.76001C7.14659 9.65334 7.01325 9.51334 6.91992 9.34668C6.82659 9.18001 6.75325 8.98001 6.71992 8.76001C6.68659 8.54001 6.66659 8.31334 6.66659 8.09334V7.91334C6.66659 7.68001 6.68659 7.46001 6.71992 7.24001ZM7.99992 1.33334C4.31992 1.33334 1.33325 4.32001 1.33325 8.00001C1.33325 11.68 4.31992 14.6667 7.99992 14.6667C11.6799 14.6667 14.6666 11.68 14.6666 8.00001C14.6666 4.32001 11.6799 1.33334 7.99992 1.33334ZM7.99992 13.3333C5.05992 13.3333 2.66659 10.94 2.66659 8.00001C2.66659 5.06001 5.05992 2.66668 7.99992 2.66668C10.9399 2.66668 13.3333 5.06001 13.3333 8.00001C13.3333 10.94 10.9399 13.3333 7.99992 13.3333Z" fill="#323232"/>
</g>
<defs>
<clipPath id="clip0_2_4885">
<rect width="16" height="16" fill="white"/>
</clipPath>
</defs>
</svg>
