<svg width="16" height="16" viewBox="0 0 16 16" fill="none" xmlns="http://www.w3.org/2000/svg">
<g clip-path="url(#clip0_2_7391)">
<path d="M7.99992 1.33333C4.31992 1.33333 1.33325 4.32 1.33325 8C1.33325 11.68 4.31992 14.6667 7.99992 14.6667C11.6799 14.6667 14.6666 11.68 14.6666 8C14.6666 4.32 11.6799 1.33333 7.99992 1.33333ZM7.99992 13.3333C5.05325 13.3333 2.66659 10.9467 2.66659 8C2.66659 5.05333 5.05325 2.66667 7.99992 2.66667C10.9466 2.66667 13.3333 5.05333 13.3333 8C13.3333 10.9467 10.9466 13.3333 7.99992 13.3333Z" fill="#323232"/>
<path d="M8.00008 11.3333C9.84103 11.3333 11.3334 9.84095 11.3334 8C11.3334 6.15905 9.84103 4.66667 8.00008 4.66667C6.15913 4.66667 4.66675 6.15905 4.66675 8C4.66675 9.84095 6.15913 11.3333 8.00008 11.3333Z" fill="#323232"/>
</g>
<defs>
<clipPath id="clip0_2_7391">
<rect width="16" height="16" fill="white"/>
</clipPath>
</defs>
</svg>
