<svg width="16" height="16" viewBox="0 0 16 16" fill="none" xmlns="http://www.w3.org/2000/svg">
<path d="M9.84623 8.46159C12.1404 8.46159 14.0001 7.63504 14.0001 6.61544C14.0001 5.59584 12.1404 4.76929 9.84623 4.76929C7.55212 4.76929 5.69238 5.59584 5.69238 6.61544C5.69238 7.63504 7.55212 8.46159 9.84623 8.46159Z" stroke="#1F1E1F" stroke-linecap="round" stroke-linejoin="round"/>
<path d="M5.69238 6.61548V12.1539C5.69238 13.1693 7.53854 14.0001 9.84623 14.0001C12.1539 14.0001 14.0001 13.1693 14.0001 12.1539V6.61548" stroke="#1F1E1F" stroke-linecap="round" stroke-linejoin="round"/>
<path d="M14.0001 9.38452C14.0001 10.3999 12.1539 11.2307 9.84623 11.2307C7.53854 11.2307 5.69238 10.3999 5.69238 9.38452" stroke="#1F1E1F" stroke-linecap="round" stroke-linejoin="round"/>
<path d="M9.75385 2.93118C8.67522 2.26553 7.41969 1.94359 6.15385 2.0081C3.85538 2.0081 2 2.83887 2 3.85426C2 4.39887 2.53538 4.88811 3.38462 5.23887" stroke="#1F1E1F" stroke-linecap="round" stroke-linejoin="round"/>
<path d="M3.38462 10.7773C2.53538 10.4266 2 9.93732 2 9.39271V3.85425" stroke="#1F1E1F" stroke-linecap="round" stroke-linejoin="round"/>
<path d="M3.38462 8.00815C2.53538 7.65738 2 7.16815 2 6.62354" stroke="#1F1E1F" stroke-linecap="round" stroke-linejoin="round"/>
</svg>
