<svg width="36" height="36" viewBox="0 0 36 36" fill="none" xmlns="http://www.w3.org/2000/svg">
<path d="M18.0021 0.00337204C13.1838 0.0785506 8.5883 2.04498 5.20706 5.47837C3.52406 7.16114 2.19613 9.16474 1.30203 11.3704C0.407928 13.576 -0.0341357 15.9387 0.00205545 18.3184C7.90581e-05 20.6426 0.456664 22.9444 1.34566 25.0919C2.23465 27.2394 3.53858 29.1905 5.18277 30.8333C6.82696 32.4761 8.77909 33.7783 10.9274 34.6655C13.0756 35.5527 15.3778 36.0073 17.7021 36.0034H18.0021C22.8172 35.9598 27.4179 34.0062 30.7932 30.5718C34.1685 27.1375 36.042 22.5035 36.0021 17.6884C36.0065 15.338 35.5416 13.0105 34.6346 10.8422C33.7277 8.6739 32.3969 6.70852 30.7204 5.06132C29.0438 3.41412 27.0553 2.11825 24.8713 1.24971C22.6873 0.381168 20.3519 -0.0425605 18.0021 0.00337204ZM15.7521 24.8134C15.7398 24.5118 15.7891 24.2109 15.8971 23.9291C16.0051 23.6472 16.1693 23.3904 16.3799 23.1742C16.5905 22.958 16.843 22.787 17.1219 22.6716C17.4008 22.5563 17.7003 22.499 18.0021 22.5034C18.5929 22.5068 19.1596 22.7379 19.5843 23.1486C20.009 23.5593 20.2589 24.118 20.2821 24.7084C20.2942 25.0054 20.2461 25.3019 20.1408 25.5799C20.0354 25.8579 19.8749 26.1117 19.6689 26.3261C19.463 26.5404 19.2158 26.711 18.9422 26.8273C18.6686 26.9437 18.3744 27.0036 18.0771 27.0034C17.481 27.0118 16.905 26.7879 16.4711 26.3792C16.0371 25.9704 15.7793 25.4089 15.7521 24.8134ZM16.5021 18.8134V9.81337C16.5021 9.41555 16.6601 9.03402 16.9414 8.75271C17.2227 8.47141 17.6042 8.31337 18.0021 8.31337C18.3999 8.31337 18.7814 8.47141 19.0627 8.75271C19.344 9.03402 19.5021 9.41555 19.5021 9.81337V18.8134C19.5021 19.2112 19.344 19.5927 19.0627 19.874C18.7814 20.1553 18.3999 20.3134 18.0021 20.3134C17.6042 20.3134 17.2227 20.1553 16.9414 19.874C16.6601 19.5927 16.5021 19.2112 16.5021 18.8134Z" fill="#23201E"/>
</svg>
