<svg width="16" height="16" viewBox="0 0 16 16" fill="none" xmlns="http://www.w3.org/2000/svg">
<g clip-path="url(#clip0_2_4849)">
<path d="M11.2199 3.33333L9.99992 2H5.99992L4.77992 3.33333H1.33325V14H14.6666V3.33333H11.2199ZM7.99992 12C6.15992 12 4.66659 10.5067 4.66659 8.66667C4.66659 6.82667 6.15992 5.33333 7.99992 5.33333C9.83992 5.33333 11.3333 6.82667 11.3333 8.66667C11.3333 10.5067 9.83992 12 7.99992 12ZM7.99992 6L7.16659 7.83333L5.33325 8.66667L7.16659 9.5L7.99992 11.3333L8.83325 9.5L10.6666 8.66667L8.83325 7.83333L7.99992 6Z" fill="#323232"/>
</g>
<defs>
<clipPath id="clip0_2_4849">
<rect width="16" height="16" fill="white"/>
</clipPath>
</defs>
</svg>
